<svg width="128" height="128" viewBox="0 0 63 63" fill="none" xmlns="http://www.w3.org/2000/svg">
<path fill-rule="evenodd" clip-rule="evenodd" d="M53.7496 49.9858H9.25032C7.07771 49.9858 5.32391 48.2242 5.32391 46.0423V26.3239H57.676V46.0423C57.676 48.2242 55.9224 49.9858 53.7496 49.9858Z" fill="#0976BD"/>
<path fill-rule="evenodd" clip-rule="evenodd" d="M57.676 26.3239H5.32391V17.214C5.32391 15.0537 7.07771 13.3098 9.25032 13.3098H53.7496C55.9224 13.3098 57.676 15.0537 57.676 17.214V26.3239Z" fill="#0094F5"/>
<path d="M57.676 26.0281H5.32391V26.3239H57.676V26.0281Z" fill="#3EB2FF"/>
<mask id="mask0" mask-type="alpha" maskUnits="userSpaceOnUse" x="5" y="26" width="53" height="24">
<path fill-rule="evenodd" clip-rule="evenodd" d="M53.7496 49.9858H9.25032C7.07771 49.9858 5.32391 48.2242 5.32391 46.0423V26.3239H57.676V46.0423C57.676 48.2242 55.9224 49.9858 53.7496 49.9858Z" fill="#0F77BB"/>
</mask>
<g mask="url(#mask0)">
<path d="M42.6994 33.0037L26.8342 46.6763C23.122 49.8755 22.7061 55.4783 25.9053 59.1906L39.0353 74.4261C42.2345 78.1383 47.8373 78.5542 51.5495 75.355L67.4147 61.6824C71.1269 58.4832 71.5428 52.8804 68.3436 49.1682L55.2136 33.9326C52.0144 30.2204 46.4116 29.8045 42.6994 33.0037Z" fill="#0F7CC4"/>
<path d="M19.2253 29.2816H10.0563C9.56621 29.2816 9.16895 29.6789 9.16895 30.1689V35.1971C9.16895 35.6872 9.56621 36.0844 10.0563 36.0844H19.2253C19.7153 36.0844 20.1126 35.6872 20.1126 35.1971V30.1689C20.1126 29.6789 19.7153 29.2816 19.2253 29.2816Z" fill="#0094F5"/>
</g>
</svg>
