<svg width="177" height="32" viewBox="0 0 177 32" fill="none" xmlns="http://www.w3.org/2000/svg">
<path d="M48.313 20.3529C47.8927 21.1219 47.2889 21.7288 46.5074 22.1734C45.726 22.618 44.8143 22.8343 43.7724 22.8343H39.6285V12.7406H43.7724C44.8143 12.7406 45.726 12.9569 46.5074 13.3835C47.2889 13.81 47.8927 14.4049 48.313 15.1679C48.7333 15.9309 48.9464 16.7961 48.9464 17.7634C48.9464 18.7187 48.7333 19.5779 48.313 20.3529ZM45.1636 19.4216C45.578 19.0311 45.7793 18.4784 45.7793 17.7514C45.7793 17.0304 45.5721 16.4716 45.1636 16.0811C44.7492 15.6906 44.1928 15.4983 43.4942 15.4983H42.7483V20.0044H43.4942C44.1928 20.0104 44.7492 19.8122 45.1636 19.4216Z" fill="#232333"/>
<path d="M54.2565 15.0117C54.6295 15.228 54.9196 15.5163 55.1149 15.8889V14.7894H58.2228V22.8342H55.1149V21.7348C54.9196 22.1073 54.6295 22.3957 54.2565 22.6119C53.8836 22.8282 53.4396 22.9304 52.9246 22.9304C52.3089 22.9304 51.7465 22.7682 51.2552 22.4377C50.7579 22.1073 50.3672 21.6326 50.083 21.0138C49.7989 20.3889 49.6568 19.6559 49.6568 18.8088C49.6568 17.9617 49.7989 17.2287 50.083 16.6038C50.3672 15.979 50.7579 15.5043 51.2552 15.1799C51.7524 14.8494 52.3089 14.6872 52.9246 14.6872C53.4337 14.6872 53.8777 14.7954 54.2565 15.0117ZM53.1318 17.8115C52.9186 18.0518 52.8062 18.3822 52.8062 18.8088C52.8062 19.2354 52.9127 19.5718 53.1318 19.8061C53.3449 20.0465 53.6231 20.1606 53.9605 20.1606C54.298 20.1606 54.5762 20.0405 54.7893 19.8061C55.0024 19.5658 55.1149 19.2354 55.1149 18.8088C55.1149 18.3822 55.0083 18.0458 54.7893 17.8115C54.5762 17.5711 54.298 17.457 53.9605 17.457C53.6231 17.457 53.3449 17.5771 53.1318 17.8115Z" fill="#232333"/>
<path d="M65.3208 15.4803C65.9601 16.009 66.3686 16.7059 66.5344 17.5711H63.6277C63.5034 17.1145 63.1897 16.8862 62.6746 16.8862C62.3845 16.8862 62.2366 17.0003 62.2366 17.2286C62.2366 17.3909 62.3431 17.511 62.5503 17.6011C62.7634 17.6853 63.0949 17.7754 63.5567 17.8715C64.1546 17.9857 64.6696 18.1239 65.0958 18.2801C65.5221 18.4363 65.8891 18.6886 66.1969 19.0431C66.5048 19.3976 66.6587 19.8722 66.6587 20.485C66.6587 20.9597 66.5285 21.3863 66.268 21.7528C66.0075 22.1253 65.6227 22.4137 65.1136 22.6239C64.6104 22.8342 64.0125 22.9364 63.3317 22.9364C62.1892 22.9364 61.2775 22.69 60.6086 22.1974C59.9337 21.7047 59.5193 20.9897 59.3595 20.0585H62.3549C62.4082 20.5271 62.7338 20.7554 63.3258 20.7554C63.6455 20.7554 63.8053 20.6413 63.8053 20.413C63.8053 20.2327 63.6988 20.1005 63.4797 20.0164C63.2666 19.9323 62.9173 19.8482 62.4378 19.7581C61.8281 19.6319 61.3249 19.4997 60.9283 19.3615C60.5316 19.2173 60.1824 18.977 59.8804 18.6345C59.5785 18.2921 59.4305 17.8234 59.4305 17.2226C59.4305 16.736 59.5549 16.3034 59.8094 15.9249C60.064 15.5464 60.4369 15.246 60.9342 15.0237C61.4314 14.8074 62.0353 14.6932 62.7457 14.6932C63.8172 14.6872 64.6815 14.9516 65.3208 15.4803Z" fill="#232333"/>
<path d="M75.4378 15.6605C75.9469 16.2794 76.2015 17.1145 76.2015 18.1719V22.8342H73.0936V18.5685C73.0936 18.19 72.9929 17.8835 72.7917 17.6612C72.5904 17.4389 72.3181 17.3248 71.9866 17.3248C71.6373 17.3248 71.3709 17.4389 71.1696 17.6612C70.9743 17.8835 70.8736 18.1839 70.8736 18.5685V22.8342H67.7538V12.278H70.8736V16.015C71.1163 15.6365 71.4419 15.3241 71.8504 15.0898C72.2589 14.8494 72.7443 14.7353 73.3067 14.7353C74.2183 14.7293 74.9287 15.0417 75.4378 15.6605Z" fill="#232333"/>
<path d="M84.5189 15.1799C85.0162 15.5103 85.4069 15.985 85.6911 16.6038C85.9752 17.2287 86.1173 17.9616 86.1173 18.8088C86.1173 19.6559 85.9752 20.3889 85.6911 21.0138C85.4069 21.6386 85.0162 22.1133 84.5189 22.4377C84.0217 22.7681 83.4652 22.9304 82.8495 22.9304C82.3345 22.9304 81.8905 22.8222 81.5235 22.6119C81.1505 22.3956 80.8723 22.1073 80.671 21.7347V22.8342H77.5513V12.278H80.671V15.8888C80.8664 15.5163 81.1505 15.2279 81.5235 15.0117C81.8905 14.7954 82.3345 14.6932 82.8495 14.6932C83.4652 14.6872 84.0217 14.8554 84.5189 15.1799ZM80.9789 17.8114C80.7657 18.0518 80.6533 18.3822 80.6533 18.8088C80.6533 19.2354 80.7598 19.5718 80.9789 19.8061C81.192 20.0465 81.4702 20.1606 81.8076 20.1606C82.1451 20.1606 82.4233 20.0405 82.6364 19.8061C82.8495 19.5658 82.962 19.2354 82.962 18.8088C82.962 18.3822 82.8555 18.0458 82.6364 17.8114C82.4233 17.5711 82.1451 17.457 81.8076 17.457C81.4702 17.457 81.1979 17.5771 80.9789 17.8114Z" fill="#232333"/>
<path d="M93.0199 15.1859C93.6592 15.5163 94.1565 15.997 94.5176 16.6218C94.8787 17.2467 95.0563 17.9737 95.0563 18.8088C95.0563 19.6439 94.8787 20.3769 94.5176 20.9958C94.1565 21.6206 93.6592 22.0952 93.0199 22.4317C92.3805 22.7621 91.6642 22.9304 90.871 22.9304C90.0777 22.9304 89.3555 22.7621 88.722 22.4317C88.0827 22.1013 87.5854 21.6206 87.2243 20.9958C86.8632 20.3709 86.6856 19.6439 86.6856 18.8088C86.6856 17.9737 86.8632 17.2407 87.2243 16.6218C87.5854 15.997 88.0827 15.5224 88.722 15.1859C89.3614 14.8555 90.0777 14.6872 90.871 14.6872C91.6642 14.6872 92.3864 14.8555 93.0199 15.1859ZM90.1428 17.7754C89.9475 18.0097 89.8468 18.3522 89.8468 18.8088C89.8468 19.2654 89.9415 19.6079 90.1369 19.8422C90.3263 20.0765 90.575 20.1907 90.8769 20.1907C91.1669 20.1907 91.4097 20.0765 91.605 19.8422C91.8004 19.6079 91.901 19.2654 91.901 18.8088C91.901 18.3522 91.8004 18.0097 91.605 17.7754C91.4097 17.5411 91.1669 17.4269 90.8769 17.4269C90.5868 17.4269 90.3382 17.5411 90.1428 17.7754Z" fill="#232333"/>
<path d="M100.23 15.0117C100.603 15.228 100.893 15.5163 101.089 15.8889V14.7894H104.197V22.8342H101.089V21.7348C100.893 22.1073 100.603 22.3957 100.23 22.6119C99.8573 22.8282 99.4133 22.9304 98.8983 22.9304C98.2826 22.9304 97.7202 22.7682 97.2289 22.4377C96.7316 22.1073 96.3409 21.6326 96.0567 21.0138C95.7726 20.3889 95.6305 19.6559 95.6305 18.8088C95.6305 17.9617 95.7726 17.2287 96.0567 16.6038C96.3409 15.979 96.7316 15.5043 97.2289 15.1799C97.7261 14.8494 98.2826 14.6872 98.8983 14.6872C99.4074 14.6872 99.8573 14.7954 100.23 15.0117ZM99.1055 17.8115C98.8923 18.0518 98.7799 18.3822 98.7799 18.8088C98.7799 19.2354 98.8864 19.5718 99.1055 19.8061C99.3186 20.0465 99.5968 20.1606 99.9342 20.1606C100.272 20.1606 100.55 20.0405 100.763 19.8061C100.976 19.5658 101.089 19.2354 101.089 18.8088C101.089 18.3822 100.982 18.0458 100.763 17.8115C100.55 17.5711 100.272 17.457 99.9342 17.457C99.5968 17.457 99.3186 17.5771 99.1055 17.8115Z" fill="#232333"/>
<path d="M109.88 15.1498C110.335 14.8675 110.815 14.7293 111.312 14.7293V18.1119H110.424C109.832 18.1119 109.4 18.214 109.122 18.4243C108.844 18.6346 108.707 19.0071 108.707 19.5358V22.8282H105.588V14.7894H108.707V16.2734C109.033 15.8047 109.424 15.4322 109.88 15.1498Z" fill="#232333"/>
<path d="M116.338 15.0117C116.705 15.2279 116.989 15.5163 117.191 15.8888V12.278H120.31V22.8282H117.191V21.7287C116.995 22.1012 116.711 22.3896 116.338 22.6059C115.965 22.8222 115.527 22.9244 115.012 22.9244C114.396 22.9244 113.834 22.7621 113.343 22.4317C112.845 22.1012 112.455 21.6266 112.171 21.0078C111.886 20.3829 111.744 19.6499 111.744 18.8028C111.744 17.9556 111.886 17.2226 112.171 16.5978C112.455 15.973 112.845 15.4983 113.343 15.1739C113.84 14.8434 114.396 14.6812 115.012 14.6812C115.527 14.6872 115.971 14.7954 116.338 15.0117ZM115.219 17.8114C115.006 18.0518 114.894 18.3822 114.894 18.8088C114.894 19.2354 115 19.5718 115.219 19.8061C115.432 20.0465 115.711 20.1606 116.048 20.1606C116.386 20.1606 116.664 20.0405 116.877 19.8061C117.09 19.5658 117.202 19.2354 117.202 18.8088C117.202 18.3822 117.096 18.0458 116.877 17.8114C116.664 17.5711 116.386 17.457 116.048 17.457C115.711 17.457 115.438 17.5771 115.219 17.8114Z" fill="#232333"/>
<path d="M127.408 15.4803C128.048 16.009 128.456 16.7059 128.622 17.5711H125.715C125.591 17.1145 125.277 16.8862 124.762 16.8862C124.472 16.8862 124.324 17.0003 124.324 17.2286C124.324 17.3909 124.431 17.511 124.638 17.6011C124.851 17.6853 125.183 17.7754 125.644 17.8715C126.242 17.9857 126.757 18.1239 127.183 18.2801C127.61 18.4363 127.977 18.6886 128.285 19.0431C128.592 19.3976 128.746 19.8722 128.746 20.485C128.746 20.9597 128.616 21.3863 128.356 21.7528C128.095 22.1253 127.71 22.4137 127.201 22.6239C126.698 22.8342 126.1 22.9364 125.419 22.9364C124.277 22.9364 123.365 22.69 122.696 22.1974C122.021 21.7047 121.607 20.9897 121.447 20.0585H124.443C124.496 20.5271 124.821 20.7554 125.413 20.7554C125.733 20.7554 125.893 20.6413 125.893 20.413C125.893 20.2327 125.786 20.1005 125.567 20.0164C125.354 19.9323 125.005 19.8482 124.525 19.7581C123.916 19.6319 123.412 19.4997 123.016 19.3615C122.619 19.2173 122.27 18.977 121.968 18.6345C121.666 18.2921 121.518 17.8234 121.518 17.2226C121.518 16.736 121.642 16.3034 121.897 15.9249C122.152 15.5464 122.524 15.246 123.022 15.0237C123.519 14.8074 124.123 14.6932 124.833 14.6932C125.911 14.6872 126.769 14.9516 127.408 15.4803Z" fill="#232333"/>
<path d="M131.688 20.7374V22.8342H129.551V20.7374H131.688ZM139.444 21.5004C139.189 21.933 138.816 22.2815 138.319 22.5398C137.821 22.8042 137.218 22.9304 136.507 22.9304C135.803 22.9304 135.175 22.8102 134.625 22.5639C134.074 22.3236 133.63 21.9691 133.299 21.5185C132.967 21.0618 132.778 20.5271 132.73 19.9203H134.838C134.885 20.3289 135.045 20.6713 135.323 20.9417C135.602 21.212 135.969 21.3502 136.424 21.3502C136.839 21.3502 137.153 21.2361 137.372 21.0138C137.591 20.7915 137.703 20.5031 137.703 20.1486C137.703 19.8362 137.614 19.5778 137.437 19.3736C137.259 19.1693 137.034 19.0071 136.762 18.8809C136.489 18.7547 136.117 18.6165 135.637 18.4543C135.021 18.244 134.512 18.0398 134.122 17.8355C133.731 17.6312 133.393 17.3368 133.115 16.9463C132.837 16.5557 132.701 16.0451 132.701 15.4202C132.701 14.555 133.009 13.8701 133.618 13.3714C134.234 12.8728 135.045 12.6204 136.057 12.6204C137.105 12.6204 137.94 12.8788 138.567 13.3895C139.189 13.9002 139.544 14.5851 139.627 15.4442H137.49C137.437 15.0838 137.283 14.7833 137.04 14.555C136.797 14.3207 136.466 14.2066 136.04 14.2066C135.673 14.2066 135.377 14.3027 135.152 14.501C134.927 14.6932 134.814 14.9816 134.814 15.3481C134.814 15.6425 134.903 15.8888 135.075 16.0811C135.246 16.2734 135.465 16.4356 135.738 16.5618C136.004 16.6879 136.365 16.8261 136.827 16.9763C137.466 17.2046 137.981 17.4209 138.378 17.6192C138.775 17.8175 139.118 18.1179 139.396 18.5204C139.674 18.9169 139.816 19.4457 139.816 20.0885C139.822 20.5932 139.698 21.0679 139.444 21.5004ZM147.708 15.3181C148.235 15.6425 148.643 16.1111 148.939 16.724C149.235 17.3368 149.383 18.0578 149.383 18.8869C149.383 19.716 149.235 20.437 148.939 21.0498C148.643 21.6627 148.235 22.1313 147.708 22.4557C147.181 22.7802 146.595 22.9424 145.938 22.9424C145.28 22.9424 144.724 22.7862 144.256 22.4617C143.795 22.1433 143.463 21.7167 143.268 21.188V26.6073H141.285V14.9336H143.268V16.5738C143.463 16.039 143.795 15.6185 144.256 15.3061C144.718 14.9936 145.28 14.8374 145.938 14.8374C146.595 14.8314 147.181 14.9936 147.708 15.3181ZM143.836 17.2046C143.445 17.6192 143.256 18.1779 143.256 18.8809C143.256 19.5778 143.451 20.1306 143.836 20.5451C144.227 20.9597 144.718 21.164 145.316 21.164C145.932 21.164 146.429 20.9597 146.808 20.5572C147.181 20.1546 147.37 19.5959 147.37 18.8809C147.37 18.1659 147.181 17.6072 146.808 17.1986C146.435 16.7901 145.938 16.5858 145.316 16.5858C144.718 16.5858 144.227 16.7901 143.836 17.2046ZM155.522 15.3C155.99 15.6125 156.321 16.039 156.516 16.5678V14.9275H158.482V22.8282H156.516V21.176C156.321 21.7107 155.99 22.1313 155.522 22.4497C155.054 22.7682 154.492 22.9304 153.835 22.9304C153.178 22.9304 152.592 22.7682 152.065 22.4437C151.538 22.1193 151.129 21.6506 150.833 21.0378C150.537 20.425 150.389 19.704 150.389 18.8749C150.389 18.0458 150.537 17.3248 150.833 16.712C151.129 16.0991 151.538 15.6305 152.065 15.3061C152.592 14.9816 153.178 14.8194 153.835 14.8194C154.486 14.8314 155.048 14.9876 155.522 15.3ZM152.964 17.1986C152.592 17.6072 152.402 18.1659 152.402 18.8809C152.402 19.5959 152.592 20.1546 152.964 20.5572C153.337 20.9597 153.835 21.164 154.456 21.164C155.054 21.164 155.551 20.9597 155.936 20.5451C156.327 20.1306 156.516 19.5778 156.516 18.8809C156.516 18.1779 156.321 17.6192 155.936 17.2046C155.546 16.7901 155.054 16.5858 154.456 16.5858C153.835 16.5858 153.337 16.7901 152.964 17.1986ZM166.29 15.6605C166.959 16.2133 167.379 16.9643 167.545 17.9136H165.449C165.367 17.493 165.171 17.1626 164.875 16.9222C164.573 16.6819 164.194 16.5557 163.739 16.5557C163.212 16.5557 162.774 16.754 162.424 17.1445C162.075 17.5411 161.898 18.1179 161.898 18.8749C161.898 19.6379 162.075 20.2147 162.424 20.6052C162.774 21.0018 163.212 21.194 163.739 21.194C164.194 21.194 164.579 21.0739 164.875 20.8275C165.177 20.5872 165.367 20.2568 165.449 19.8362H167.545C167.379 20.7855 166.959 21.5365 166.29 22.0892C165.621 22.642 164.786 22.9184 163.78 22.9184C163.022 22.9184 162.347 22.7561 161.755 22.4257C161.164 22.0952 160.708 21.6266 160.376 21.0198C160.051 20.413 159.885 19.692 159.885 18.8689C159.885 18.0398 160.051 17.3188 160.376 16.706C160.702 16.0931 161.164 15.6245 161.755 15.3C162.347 14.9756 163.022 14.8134 163.78 14.8134C164.781 14.8314 165.621 15.1078 166.29 15.6605ZM176.2 19.2654H170.493C170.523 19.9684 170.706 20.4851 171.056 20.8215C171.405 21.152 171.831 21.3202 172.346 21.3202C172.802 21.3202 173.187 21.206 173.489 20.9777C173.791 20.7494 173.986 20.443 174.069 20.0525H176.164C176.064 20.6052 175.839 21.0979 175.501 21.5365C175.164 21.9751 174.732 22.3175 174.199 22.5639C173.672 22.8102 173.08 22.9364 172.435 22.9364C171.677 22.9364 171.002 22.7742 170.41 22.4437C169.818 22.1133 169.363 21.6446 169.031 21.0378C168.705 20.431 168.54 19.71 168.54 18.8869C168.54 18.0578 168.705 17.3368 169.031 16.724C169.357 16.1111 169.818 15.6425 170.41 15.3181C171.002 14.9936 171.677 14.8314 172.435 14.8314C173.205 14.8314 173.873 14.9936 174.454 15.3181C175.028 15.6425 175.472 16.0871 175.786 16.6519C176.099 17.2166 176.259 17.8595 176.259 18.5865C176.271 18.7848 176.247 19.0131 176.2 19.2654ZM173.779 16.9162C173.418 16.5858 172.974 16.4176 172.453 16.4176C171.92 16.4176 171.47 16.5858 171.103 16.9162C170.736 17.2467 170.535 17.7393 170.499 18.3822H174.276C174.306 17.7393 174.14 17.2467 173.779 16.9162Z" fill="url(#paint0_linear)"/>
<path d="M26.8357 5.02615C23.9468 2.09418 20.1048 0.477997 16.0201 0.477997C11.9354 0.477997 8.09338 2.09418 5.20449 5.02615C2.31559 7.95812 0.723145 11.8574 0.723145 16.003C0.723145 20.1486 2.31559 24.0479 5.20449 26.9798C5.37616 27.1541 5.54784 27.3223 5.73135 27.4905L9.47271 23.6814C7.35932 21.8189 6.01551 19.0671 6.01551 16.009C6.01551 10.4094 10.5028 5.85527 16.0201 5.85527C19.0215 5.85527 21.7209 7.20109 23.5561 9.33398L27.2974 5.52482C27.1494 5.35059 26.9896 5.18236 26.8357 5.02615Z" fill="url(#paint1_linear)"/>
<path d="M31.3111 15.997C31.3111 20.1426 29.7186 24.0419 26.8297 26.9739C23.9408 29.9058 20.0988 31.522 16.0141 31.522C12.1721 31.522 8.54326 30.0921 5.7254 27.4845L9.46676 23.6754C11.225 25.2195 13.5159 26.1567 16.0141 26.1567C21.5315 26.1567 26.0187 21.6026 26.0187 16.003C26.0187 13.4496 25.0834 11.1124 23.5501 9.32798L27.2915 5.51883C29.8903 8.38471 31.3111 12.0797 31.3111 15.997Z" fill="url(#paint2_linear)"/>
<path opacity="0.2" d="M25.3853 13.2873C28.5665 13.2873 31.1453 10.67 31.1453 7.4414C31.1453 4.21279 28.5665 1.59549 25.3853 1.59549C22.2041 1.59549 19.6252 4.21279 19.6252 7.4414C19.6252 10.67 22.2041 13.2873 25.3853 13.2873Z" fill="#1C48FE"/>
<path d="M25.3852 10.3734C26.9807 10.3734 28.2741 9.06068 28.2741 7.4414C28.2741 5.82212 26.9807 4.50943 25.3852 4.50943C23.7897 4.50943 22.4963 5.82212 22.4963 7.4414C22.4963 9.06068 23.7897 10.3734 25.3852 10.3734Z" fill="#1C48FE"/>
<path opacity="0.2" d="M7.60799 31.3298C10.7892 31.3298 13.368 28.7125 13.368 25.4838C13.368 22.2552 10.7892 19.6379 7.60799 19.6379C4.42682 19.6379 1.84796 22.2552 1.84796 25.4838C1.84796 28.7125 4.42682 31.3298 7.60799 31.3298Z" fill="#1C48FE"/>
<path d="M7.60795 28.4158C9.20344 28.4158 10.4968 27.1031 10.4968 25.4838C10.4968 23.8646 9.20344 22.5519 7.60795 22.5519C6.01246 22.5519 4.71906 23.8646 4.71906 25.4838C4.71906 27.1031 6.01246 28.4158 7.60795 28.4158Z" fill="#1C48FE"/>
<defs>
<linearGradient id="paint0_linear" x1="129.553" y1="19.6092" x2="176.272" y2="19.6092" gradientUnits="userSpaceOnUse">
<stop stop-color="#1C48FE"/>
<stop offset="1" stop-color="#365DFF"/>
</linearGradient>
<linearGradient id="paint1_linear" x1="3.29196" y1="25.9367" x2="19.7181" y2="0.0354471" gradientUnits="userSpaceOnUse">
<stop stop-color="#1C48FE" stop-opacity="0.8"/>
<stop offset="1" stop-color="#1C48FE" stop-opacity="0"/>
</linearGradient>
<linearGradient id="paint2_linear" x1="9.7835" y1="32.0518" x2="32.7583" y2="11.6691" gradientUnits="userSpaceOnUse">
<stop stop-color="#295AD9" stop-opacity="0"/>
<stop offset="1" stop-color="#1C48FE" stop-opacity="0.8"/>
</linearGradient>
</defs>
</svg>
