<svg width="13" height="17" viewBox="0 0 13 17" fill="none" xmlns="http://www.w3.org/2000/svg">
<path d="M7.04166 13.7807V3.44912C7.04166 3.09249 6.79915 2.80339 6.5 2.80339C6.20084 2.80339 5.95833 3.09249 5.95833 3.44912V13.7807C5.95833 14.1374 6.20084 14.4265 6.5 14.4265C6.79915 14.4265 7.04166 14.1374 7.04166 13.7807Z" fill="#92929D"/>
<path d="M6.49518 4.42971L9.88427 9.04048C10.0814 9.3087 10.4236 9.33561 10.6486 9.10058C10.8736 8.86555 10.8962 8.45759 10.6991 8.18937L6.90199 3.02356C6.68601 2.72972 6.30233 2.73005 6.0867 3.02425L2.30043 8.19005C2.1036 8.45861 2.12665 8.86653 2.35193 9.10118C2.5772 9.33583 2.91939 9.30835 3.11623 9.0398L6.49518 4.42971Z" fill="#92929D"/>
</svg>
