<svg width="43" height="42" viewBox="0 0 43 42" fill="none" xmlns="http://www.w3.org/2000/svg">
<path d="M18.3232 18.1825C17.3228 18.1825 16.533 19.0575 16.533 20.125C16.533 21.1925 17.3403 22.0675 18.3232 22.0675C19.3236 22.0675 20.1134 21.1925 20.1134 20.125C20.1309 19.0575 19.3236 18.1825 18.3232 18.1825ZM24.7293 18.1825C23.7289 18.1825 22.9391 19.0575 22.9391 20.125C22.9391 21.1925 23.7464 22.0675 24.7293 22.0675C25.7297 22.0675 26.5195 21.1925 26.5195 20.125C26.5195 19.0575 25.7297 18.1825 24.7293 18.1825Z" fill="white"/>
<path d="M33.2591 3.5H9.74078C7.75752 3.5 6.14282 5.11 6.14282 7.105V30.765C6.14282 32.76 7.75752 34.37 9.74078 34.37H29.6436L28.7134 31.1325L30.96 33.215L33.0836 35.175L36.8571 38.5V7.105C36.8571 5.11 35.2424 3.5 33.2591 3.5ZM26.4845 26.355C26.4845 26.355 25.8526 25.6025 25.3261 24.9375C27.6253 24.29 28.5028 22.855 28.5028 22.855C27.7832 23.3275 27.0987 23.66 26.4845 23.8875C25.6069 24.255 24.7645 24.5 23.9396 24.64C22.2547 24.955 20.7102 24.8675 19.3938 24.6225C18.3934 24.43 17.5334 24.15 16.8138 23.87C16.4102 23.7125 15.9714 23.52 15.5326 23.275C15.48 23.24 15.4273 23.2225 15.3747 23.1875C15.3396 23.17 15.322 23.1525 15.3045 23.135C14.9885 22.96 14.813 22.8375 14.813 22.8375C14.813 22.8375 15.6555 24.2375 17.8845 24.9025C17.3579 25.5675 16.7085 26.355 16.7085 26.355C12.8298 26.2325 11.3555 23.695 11.3555 23.695C11.3555 18.06 13.8828 13.4925 13.8828 13.4925C16.4102 11.6025 18.8147 11.655 18.8147 11.655L18.9902 11.865C15.831 12.775 14.3743 14.1575 14.3743 14.1575C14.3743 14.1575 14.7604 13.9475 15.4098 13.65C17.2877 12.8275 18.7796 12.6 19.3938 12.5475C19.4991 12.53 19.5869 12.5125 19.6922 12.5125C20.7628 12.3725 21.9738 12.3375 23.2375 12.4775C24.9049 12.67 26.6951 13.16 28.5204 14.1575C28.5204 14.1575 27.1338 12.845 24.1502 11.935L24.3959 11.655C24.3959 11.655 26.8004 11.6025 29.3277 13.4925C29.3277 13.4925 31.8551 18.06 31.8551 23.695C31.8551 23.695 30.3632 26.2325 26.4845 26.355Z" fill="white"/>
</svg>
