<svg display="none">
    <symbol width="16" height="17" viewBox="0 0 16 17" id="analytics" fill="none">
        <path opacity="0.4" d="M5.03394 10.4642L7.06693 7.83078L9.38592 9.64632L11.3754 7.08722"
              stroke-width="1.5" stroke-linecap="round" stroke-linejoin="round"/>
        <ellipse cx="13.6944" cy="3.30124" rx="1.3056" ry="1.30124" stroke-width="1.5"
                 stroke-linecap="round" stroke-linejoin="round"/>
        <path
                d="M10.2501 2.57007H5.31373C3.26829 2.57007 2 4.01382 2 6.05243V11.5238C2 13.5624 3.24342 15 5.31373 15H11.1578C13.2033 15 14.4715 13.5624 14.4715 11.5238V6.75882"
                stroke-width="1.5" stroke-linecap="round" stroke-linejoin="round"/>
    </symbol>
    <symbol width="16" height="16" viewBox="0 0 16 17" fill="none" id="releases">
        <path opacity="0.4" d="M2.06689 6.5532H14.9397" stroke-width="1.5" stroke-linecap="round"
              stroke-linejoin="round"/>
        <path opacity="0.4" fill-rule="evenodd" clip-rule="evenodd"
              d="M4.54181 9.48228C4.54181 9.06807 4.8776 8.73228 5.29181 8.73228H5.2985C5.71271 8.73228 6.0485 9.06807 6.0485 9.48228C6.0485 9.8965 5.71271 10.2323 5.2985 10.2323H5.29181C4.8776 10.2323 4.54181 9.8965 4.54181 9.48228ZM8.5033 8.73228C8.08908 8.73228 7.7533 9.06807 7.7533 9.48228C7.7533 9.8965 8.08908 10.2323 8.5033 10.2323H8.50999C8.9242 10.2323 9.25999 9.8965 9.25999 9.48228C9.25999 9.06807 8.9242 8.73228 8.50999 8.73228H8.5033ZM11.7081 8.73228C11.2939 8.73228 10.9581 9.06807 10.9581 9.48228C10.9581 9.8965 11.2939 10.2323 11.7081 10.2323H11.7148C12.129 10.2323 12.4648 9.8965 12.4648 9.48228C12.4648 9.06807 12.129 8.73228 11.7148 8.73228H11.7081ZM11.7081 11.6471C11.2939 11.6471 10.9581 11.9829 10.9581 12.3971C10.9581 12.8114 11.2939 13.1471 11.7081 13.1471H11.7148C12.129 13.1471 12.4648 12.8114 12.4648 12.3971C12.4648 11.9829 12.129 11.6471 11.7148 11.6471H11.7081ZM7.7533 12.3971C7.7533 11.9829 8.08908 11.6471 8.5033 11.6471H8.50999C8.9242 11.6471 9.25999 11.9829 9.25999 12.3971C9.25999 12.8114 8.9242 13.1471 8.50999 13.1471H8.5033C8.08908 13.1471 7.7533 12.8114 7.7533 12.3971ZM5.29181 11.6471C4.8776 11.6471 4.54181 11.9829 4.54181 12.3971C4.54181 12.8114 4.8776 13.1471 5.29181 13.1471H5.2985C5.71271 13.1471 6.0485 12.8114 6.0485 12.3971C6.0485 11.9829 5.71271 11.6471 5.2985 11.6471H5.29181Z"/>
        <path d="M11.4205 1V3.46809" stroke-width="1.5" stroke-linecap="round"
              stroke-linejoin="round"/>
        <path d="M5.58618 1V3.46809" stroke-width="1.5" stroke-linecap="round"
              stroke-linejoin="round"/>
        <path fill-rule="evenodd" clip-rule="evenodd"
              d="M11.561 2.18439H5.4457C3.32475 2.18439 2 3.41135 2 5.66666V12.4539C2 14.7447 3.32475 16 5.4457 16H11.5543C13.6819 16 15 14.766 15 12.5106V5.66666C15.0067 3.41135 13.6886 2.18439 11.561 2.18439Z"
              stroke-width="1.5" stroke-linecap="round" stroke-linejoin="round"/>
    </symbol>
    <symbol width="16" height="16" viewBox="0 0 16 17" fill="none" id="licenses">
        <path fill-rule="evenodd" clip-rule="evenodd"
              d="M10.6662 1.1865H5.40006C3.77002 1.1865 2.36481 2.50779 2.36481 4.13863V12.7274C2.36481 14.4501 3.67739 15.716 5.40006 15.716H11.7239C13.3547 15.716 14.6768 14.3583 14.6768 12.7274V5.36333L10.6662 1.1865Z"
              stroke-width="1.5" stroke-linecap="round" stroke-linejoin="round"/>
        <path
                d="M10.4583 1.17724V3.4802C10.4583 4.60437 11.3679 5.51637 12.492 5.51874C13.5339 5.52112 14.6003 5.52191 14.6723 5.51716"
                stroke-width="1.5" stroke-linecap="round" stroke-linejoin="round"/>
        <path opacity="0.4" fill-rule="evenodd" clip-rule="evenodd"
              d="M9.12625 7.28434C9.12625 6.87013 8.79046 6.53434 8.37625 6.53434C7.96203 6.53434 7.62625 6.87013 7.62625 7.28434V8.4737H6.43646C6.02225 8.4737 5.68646 8.80948 5.68646 9.2237C5.68646 9.63791 6.02225 9.9737 6.43646 9.9737H7.62625V11.1643C7.62625 11.5785 7.96203 11.9143 8.37625 11.9143C8.79046 11.9143 9.12625 11.5785 9.12625 11.1643V9.9737H10.3164C10.7306 9.9737 11.0664 9.63791 11.0664 9.2237C11.0664 8.80948 10.7306 8.4737 10.3164 8.4737H9.12625V7.28434Z"
        />
    </symbol>
    <symbol width="16" height="16" viewBox="0 0 16 17" fill="none" id="tickets">
        <path opacity="0.4"
              d="M11.5118 6.70741L8.66819 8.99693C8.13004 9.41884 7.37566 9.41884 6.83752 8.99693L3.96948 6.70741"
              stroke-width="1.5" stroke-linecap="round" stroke-linejoin="round"/>
        <path fill-rule="evenodd" clip-rule="evenodd"
              d="M4.59189 3H10.8772C11.7834 3.01016 12.646 3.39329 13.264 4.06013C13.882 4.72698 14.2014 5.61935 14.148 6.52941V10.8813C14.2014 11.7914 13.882 12.6838 13.264 13.3506C12.646 14.0175 11.7834 14.4006 10.8772 14.4107H4.59189C2.64529 14.4107 1.33331 12.8271 1.33331 10.8813V6.52941C1.33331 4.58363 2.64529 3 4.59189 3Z"
              stroke-width="1.5" stroke-linecap="round" stroke-linejoin="round"/>
    </symbol>
    <symbol width="16" height="16" viewBox="0 0 16 16" fill="none" id="staff">
        <path opacity="0.4"
              d="M11.73 7.28792C12.7982 7.28792 13.6648 6.42197 13.6648 5.35375C13.6648 4.28553 12.7982 3.41958 11.73 3.41958"
              stroke-width="1.5" stroke-linecap="round" stroke-linejoin="round"/>
        <path
                d="M12.6194 9.38983C12.9384 9.41183 13.2556 9.45705 13.5678 9.52733C14.0017 9.61228 14.5236 9.79011 14.7094 10.1794C14.8279 10.4287 14.8279 10.719 14.7094 10.9689C14.5242 11.3582 14.0017 11.5354 13.5678 11.6247"
                stroke-width="1.5" stroke-linecap="round" stroke-linejoin="round"/>
        <path opacity="0.4"
              d="M4.19338 7.28792C3.12516 7.28792 2.25861 6.42197 2.25861 5.35375C2.25861 4.28553 3.12516 3.41958 4.19338 3.41958"
              stroke-width="1.5" stroke-linecap="round" stroke-linejoin="round"/>
        <path
                d="M3.30389 9.38983C2.98489 9.41183 2.66772 9.45705 2.35544 9.52733C1.92155 9.61228 1.39966 9.79011 1.2145 10.1794C1.09533 10.4287 1.09533 10.719 1.2145 10.9689C1.39905 11.3582 1.92155 11.5354 2.35544 11.6247"
                stroke="#494949" stroke-width="1.5" stroke-linecap="round" stroke-linejoin="round"/>
        <path fill-rule="evenodd" clip-rule="evenodd"
              d="M7.95854 9.80637C10.1231 9.80637 11.9723 10.1339 11.9723 11.4448C11.9723 12.755 10.1353 13.0948 7.95854 13.0948C5.79337 13.0948 3.94476 12.7672 3.94476 11.4564C3.94476 10.1455 5.78176 9.80637 7.95854 9.80637Z"
              stroke-width="1.5" stroke-linecap="round" stroke-linejoin="round"/>
        <path opacity="0.4" fill-rule="evenodd" clip-rule="evenodd"
              d="M7.95858 7.93661C6.53102 7.93661 5.38641 6.792 5.38641 5.36383C5.38641 3.93628 6.53102 2.79167 7.95858 2.79167C9.38614 2.79167 10.5307 3.93628 10.5307 5.36383C10.5307 6.792 9.38614 7.93661 7.95858 7.93661Z"
              stroke-width="1.5" stroke-linecap="round" stroke-linejoin="round"/>
    </symbol>

    <symbol width="16" height="16" viewBox="0 0 16 17" fill="none" id="embeds">
        <path d="M8 16.5C9.10457 16.5 10 15.6046 10 14.5H6C6 15.6046 6.89543 16.5 8 16.5Z" fill="black"
              stroke-width=".5"/>
        <path fill-rule="evenodd" clip-rule="evenodd"
              d="M8 2.41825L7.20281 2.57925C5.37552 2.94829 4.00002 4.56463 4.00002 6.5C4.00002 7.12782 3.86566 8.69725 3.54116 10.2422C3.38006 11.0091 3.16454 11.8076 2.87809 12.5H13.1219C12.8355 11.8076 12.62 11.0091 12.4589 10.2422C12.1344 8.69724 12 7.12782 12 6.5C12 4.56462 10.6245 2.94827 8.7972 2.57924L8 2.41825ZM14.2193 12.5C14.4426 12.9474 14.7015 13.301 15 13.5H1C1.29853 13.301 1.55745 12.9474 1.7807 12.5C2.67922 10.6994 3.00002 7.37916 3.00002 6.5C3.00002 4.07934 4.7202 2.06045 7.00484 1.59904C7.00164 1.56646 7 1.53342 7 1.5C7 0.947715 7.44772 0.5 8 0.5C8.55228 0.5 9 0.947715 9 1.5C9 1.53342 8.99836 1.56646 8.99516 1.59903C11.2798 2.06042 13 4.07932 13 6.5C13 7.37916 13.3208 10.6994 14.2193 12.5Z"
              fill="black" stroke-width=".5"/>
    </symbol>
    <symbol width="16" height="16" viewBox="0 0 16 17" fill="none" id="settings">
        <path fill-rule="evenodd" clip-rule="evenodd"
              d="M8.83727 2.1261C8.59121 1.2913 7.40879 1.2913 7.16273 2.1261L7.06888 2.44452C6.73155 3.589 5.42432 4.13046 4.37653 3.55972L4.08501 3.40093C3.32074 2.98463 2.48463 3.82073 2.90093 4.58501L3.05972 4.87653C3.63046 5.92433 3.08899 7.23155 1.94451 7.56888L1.6261 7.66273C0.791301 7.90879 0.7913 9.09121 1.6261 9.33727L1.94452 9.43112C3.089 9.76845 3.63046 11.0757 3.05972 12.1235L2.90093 12.415C2.48463 13.1793 3.32074 14.0154 4.08501 13.5991L4.37653 13.4403C5.42433 12.8695 6.73155 13.411 7.06888 14.5555L7.16273 14.8739C7.40879 15.7087 8.59121 15.7087 8.83727 14.8739L8.93112 14.5555C9.26845 13.411 10.5757 12.8695 11.6235 13.4403L11.915 13.5991C12.6793 14.0154 13.5154 13.1793 13.0991 12.415L12.9403 12.1235C12.3695 11.0757 12.911 9.76845 14.0555 9.43112L14.3739 9.33727C15.2087 9.09121 15.2087 7.90879 14.3739 7.66273L14.0555 7.56888C12.911 7.23155 12.3695 5.92433 12.9403 4.87653L13.0991 4.58501C13.5154 3.82074 12.6793 2.98463 11.915 3.40094L11.6235 3.55972C10.5757 4.13046 9.26845 3.58899 8.93112 2.44451L8.83727 2.1261ZM6.20353 1.84338C6.73147 0.0522088 9.26853 0.0522075 9.79647 1.84338L9.89032 2.16179C10.0475 2.69519 10.6568 2.94755 11.1451 2.68155L11.4366 2.52276C13.0765 1.62953 14.8705 3.42349 13.9772 5.06335L13.8184 5.35487C13.5524 5.84321 13.8048 6.45246 14.3382 6.60968L14.6566 6.70353C16.4478 7.23147 16.4478 9.76853 14.6566 10.2965L14.3382 10.3903C13.8048 10.5475 13.5524 11.1568 13.8184 11.6451L13.9772 11.9366C14.8705 13.5765 13.0765 15.3705 11.4366 14.4772L11.1451 14.3184C10.6568 14.0524 10.0475 14.3048 9.89032 14.8382L9.79647 15.1566C9.26853 16.9478 6.73147 16.9478 6.20353 15.1566L6.10968 14.8382C5.95246 14.3048 5.34321 14.0524 4.85487 14.3184L4.56335 14.4772C2.92349 15.3705 1.12953 13.5765 2.02276 11.9366L2.18155 11.6451C2.44755 11.1568 2.19519 10.5475 1.66179 10.3903L1.34338 10.2965C-0.447791 9.76853 -0.447793 7.23147 1.34338 6.70353L1.66179 6.60968C2.19519 6.45246 2.44755 5.84321 2.18155 5.35487L2.02276 5.06336C1.12953 3.4235 2.9235 1.62953 4.56336 2.52276L4.85487 2.68155C5.34321 2.94755 5.95246 2.69519 6.10968 2.16179L6.20353 1.84338Z"
              fill="black" stroke-width=".5"/>
        <path fill-rule="evenodd" clip-rule="evenodd"
              d="M8.00004 6.25421C6.75973 6.25421 5.75427 7.25967 5.75427 8.49997C5.75427 9.74027 6.75973 10.7457 8.00004 10.7457C9.24034 10.7457 10.2458 9.74027 10.2458 8.49997C10.2458 7.25967 9.24034 6.25421 8.00004 6.25421ZM4.75427 8.49997C4.75427 6.70739 6.20745 5.25421 8.00004 5.25421C9.79262 5.25421 11.2458 6.70739 11.2458 8.49997C11.2458 10.2926 9.79262 11.7457 8.00004 11.7457C6.20745 11.7457 4.75427 10.2926 4.75427 8.49997Z"
              fill="black" stroke-width=".5"/>
    </symbol>
</svg>