<svg width="34" height="34" viewBox="0 0 34 34" fill="none" xmlns="http://www.w3.org/2000/svg">
<path fill-rule="evenodd" clip-rule="evenodd" d="M1.83162 17.0466C2.38487 16.4934 3.28184 16.4934 3.83509 17.0466L12.5193 25.7308C13.0725 26.284 13.0725 27.181 12.5193 27.7342C11.966 28.2874 11.069 28.2874 10.5158 27.7342L1.83162 19.0501C1.27838 18.4969 1.27838 17.5998 1.83162 17.0466Z" fill="#A5A5A5"/>
<path fill-rule="evenodd" clip-rule="evenodd" d="M32.1684 6.08155C32.7216 6.6348 32.7216 7.53178 32.1684 8.08503L12.5192 27.7342C11.966 28.2874 11.069 28.2874 10.5158 27.7342C9.96252 27.181 9.96252 26.2839 10.5158 25.7307L30.1649 6.08155C30.7181 5.52832 31.6152 5.52832 32.1684 6.08155Z" fill="#A5A5A5"/>
</svg>
