<svg width="34" height="34" viewBox="0 0 34 34" fill="none" xmlns="http://www.w3.org/2000/svg">
<path fill-rule="evenodd" clip-rule="evenodd" d="M32.1684 1.83155C32.7216 2.38481 32.7216 3.28178 32.1684 3.83503L3.83509 32.1684C3.28184 32.7216 2.38487 32.7216 1.83162 32.1684C1.27838 31.6151 1.27838 30.7181 1.83162 30.1649L30.165 1.83155C30.7182 1.27832 31.6152 1.27832 32.1684 1.83155Z" fill="#A5A5A5"/>
<path fill-rule="evenodd" clip-rule="evenodd" d="M1.83162 1.83155C2.38487 1.27832 3.28184 1.27832 3.83509 1.83155L32.1684 30.1649C32.7216 30.7181 32.7216 31.6151 32.1684 32.1684C31.6152 32.7216 30.7182 32.7216 30.165 32.1684L1.83162 3.83503C1.27838 3.28178 1.27838 2.38481 1.83162 1.83155Z" fill="#A5A5A5"/>
</svg>
